<?xml version="1.0" standalone="no"?>
<!DOCTYPE svg PUBLIC "-//W3C//DTD SVG 20010904//EN"
 "http://www.w3.org/TR/2001/REC-SVG-20010904/DTD/svg10.dtd">
<svg version="1.0" xmlns="http://www.w3.org/2000/svg"
 width="464.000000pt" height="464.000000pt" viewBox="0 0 464.000000 464.000000"
 preserveAspectRatio="xMidYMid meet">
<metadata>
Created by potrace 1.11, written by Peter Selinger 2001-2013
</metadata>
<g transform="translate(0.000000,464.000000) scale(0.100000,-0.100000)"
fill="#000000" stroke="none">
<path d="M94 3033 c2 -920 7 -1410 14 -1453 28 -168 66 -297 121 -408 11 -24
21 -50 21 -58 0 -8 4 -14 8 -14 5 0 14 -16 22 -35 8 -19 17 -35 22 -35 4 0 8
-9 8 -20 0 -11 4 -20 9 -20 5 0 12 -8 16 -18 3 -11 23 -43 45 -73 22 -30 48
-65 58 -78 41 -58 286 -291 305 -291 7 0 36 -23 62 -48 8 -6 19 -12 25 -12 6
0 20 -9 32 -20 12 -11 28 -20 35 -20 7 0 13 -4 13 -10 0 -5 9 -10 20 -10 11 0
20 -4 20 -10 0 -5 9 -10 20 -10 11 0 20 -4 20 -10 0 -5 9 -10 20 -10 11 0 20
-4 20 -10 0 -5 7 -10 15 -10 8 0 23 -4 33 -9 9 -6 60 -24 112 -41 91 -30 120
-37 270 -62 44 -7 554 -12 1573 -14 l1507 -4 -4 1417 c-2 780 -7 1441 -11
1468 -4 28 -11 54 -16 59 -5 6 -9 27 -9 47 0 21 -4 41 -10 44 -5 3 -10 17 -10
31 0 13 -4 32 -9 42 -5 9 -14 29 -20 45 -6 15 -16 39 -22 55 -6 15 -15 35 -20
44 -5 10 -9 25 -9 33 0 8 -4 15 -10 15 -5 0 -10 9 -10 20 0 11 -4 20 -10 20
-5 0 -10 9 -10 20 0 11 -4 20 -10 20 -5 0 -10 7 -10 15 0 8 -4 15 -10 15 -5 0
-10 5 -10 11 0 11 -22 45 -92 145 -60 84 -169 202 -234 250 -22 16 -47 38 -56
50 -28 35 -176 128 -283 178 -55 26 -108 52 -117 57 -10 5 -25 9 -33 9 -8 0
-23 4 -33 9 -34 17 -67 30 -97 36 -16 3 -50 11 -75 16 -114 25 -266 28 -1693
28 l-1517 1 4 -1387z m1174 135 c6 -13 13 -50 16 -83 3 -33 10 -95 16 -137 12
-95 25 -195 39 -308 23 -178 50 -386 61 -470 25 -183 30 -223 40 -322 17 -171
14 -171 108 15 45 89 82 168 82 175 0 7 5 12 10 12 6 0 10 9 10 20 0 11 5 20
10 20 6 0 10 9 10 20 0 11 5 20 10 20 6 0 10 9 10 20 0 11 5 20 10 20 6 0 10
9 10 19 0 11 4 21 8 23 5 2 46 81 93 177 46 96 140 287 209 425 l125 251 161
3 161 2 8 -42 c4 -24 11 -72 15 -108 8 -61 20 -147 40 -300 5 -36 13 -105 18
-155 15 -137 93 -738 98 -754 3 -8 30 37 62 100 31 63 60 116 64 117 5 2 8 9
8 16 0 18 24 66 33 66 4 0 7 6 7 13 0 18 24 67 33 67 4 0 7 9 7 20 0 11 5 20
10 20 6 0 10 9 10 20 0 11 5 20 10 20 6 0 10 9 10 20 0 11 5 20 10 20 6 0 10
6 10 14 0 8 20 52 45 97 24 46 45 92 45 102 0 9 5 17 10 17 6 0 10 9 10 20 0
11 5 20 10 20 6 0 10 9 10 20 0 11 5 20 10 20 6 0 10 9 10 19 0 11 3 21 8 23
9 4 132 250 132 265 0 6 3 13 8 15 10 4 52 87 52 104 0 8 5 14 10 14 6 0 10 5
10 12 0 6 23 58 52 115 l52 103 198 0 c109 0 198 -1 198 -3 0 -4 -153 -305
-208 -407 -22 -41 -50 -95 -63 -120 -13 -25 -27 -46 -31 -48 -5 -2 -8 -9 -8
-16 0 -18 -24 -66 -32 -66 -5 0 -8 -9 -8 -20 0 -11 -4 -20 -8 -20 -5 0 -14
-16 -22 -35 -8 -19 -17 -35 -22 -35 -4 0 -8 -7 -8 -16 0 -8 -29 -69 -65 -135
-35 -67 -70 -134 -77 -150 -7 -16 -16 -29 -20 -29 -5 0 -8 -9 -8 -20 0 -11 -4
-20 -10 -20 -5 0 -10 -9 -10 -20 0 -11 -3 -20 -7 -20 -5 0 -19 -25 -33 -55
-14 -30 -28 -55 -32 -55 -5 0 -8 -9 -8 -20 0 -11 -4 -20 -10 -20 -5 0 -10 -9
-10 -19 0 -11 -3 -21 -7 -23 -5 -1 -19 -23 -31 -48 -13 -25 -48 -92 -78 -149
-30 -57 -54 -109 -54 -117 0 -8 -4 -14 -10 -14 -5 0 -10 -9 -10 -20 0 -11 -3
-20 -8 -20 -4 0 -13 -15 -21 -32 -8 -18 -17 -35 -20 -38 -12 -10 -31 -50 -31
-65 0 -8 -3 -15 -8 -15 -4 0 -15 -17 -24 -39 -31 -71 -30 -71 -222 -71 -201 0
-191 -6 -201 115 -3 39 -9 106 -15 150 -13 114 -43 350 -60 485 -5 41 -14 116
-19 165 -14 139 -51 428 -58 449 -5 18 -6 18 -19 -5 -7 -13 -13 -31 -14 -41 0
-9 -4 -18 -8 -20 -7 -3 -66 -121 -103 -205 -8 -18 -17 -33 -21 -33 -5 0 -8 -9
-8 -20 0 -11 -4 -20 -10 -20 -5 0 -10 -9 -10 -20 0 -11 -4 -20 -10 -20 -5 0
-10 -9 -10 -20 0 -11 -4 -20 -10 -20 -5 0 -10 -9 -10 -20 0 -11 -4 -20 -10
-20 -5 0 -10 -9 -10 -20 0 -11 -4 -20 -10 -20 -5 0 -10 -9 -10 -20 0 -11 -4
-20 -10 -20 -5 0 -10 -9 -10 -20 0 -11 -4 -20 -10 -20 -5 0 -10 -6 -10 -14 0
-8 -20 -54 -44 -103 -104 -208 -146 -299 -146 -310 0 -6 -3 -13 -8 -15 -4 -2
-45 -78 -91 -171 l-84 -167 -181 2 -180 3 -18 105 c-22 133 -68 433 -80 525
-5 39 -13 97 -18 130 -5 33 -14 92 -20 130 -6 39 -15 99 -20 135 -10 62 -20
127 -41 270 -5 36 -14 92 -19 125 -16 97 -40 255 -60 393 -5 37 -13 93 -16
125 l-6 57 194 0 c192 0 195 0 206 -22z"/>
</g>
</svg>
